<svg width="290" height="20" viewBox="0 0 290 20" fill="none" xmlns="http://www.w3.org/2000/svg">
<path d="M185.247 18.9329H183.604V10.4905H180.377V9.12329H183.604V4.31274H185.247V18.9329ZM260.629 18.9329H258.971V4.31274H260.629V18.9329ZM194.628 13.3196C196.15 13.3196 197.385 13.5702 198.241 14.0432C199.1 14.5179 199.581 15.2197 199.581 16.1106C199.581 17.0012 199.1 17.6976 198.241 18.1702C197.385 18.6412 196.15 18.8925 194.628 18.9006L194.07 18.886C192.801 18.8261 191.759 18.5824 191.008 18.1702C190.147 17.6976 189.667 17.0008 189.675 16.1096C189.667 15.2188 190.147 14.5177 191.008 14.0432C191.866 13.5701 193.105 13.3196 194.628 13.3196ZM246.698 18.9006H245.057V15.1877H236.744V13.8196H246.698V18.9006ZM289.555 18.7229H279.761V13.6428H289.555V18.7229ZM232.139 18.7073H222.556V13.1096H232.139V18.7073ZM194.628 14.6389C193.575 14.6389 192.741 14.7765 192.174 15.0315C191.608 15.286 191.317 15.6519 191.317 16.1106C191.318 16.5607 191.608 16.9264 192.174 17.1809C192.741 17.4359 193.575 17.5727 194.628 17.5647L195.013 17.5608C195.885 17.5365 196.586 17.404 197.082 17.1809C197.648 16.9264 197.938 16.5608 197.938 16.1106C197.938 15.6519 197.648 15.286 197.082 15.0315C196.515 14.7765 195.681 14.6389 194.628 14.6389ZM145.681 5.75806L149.894 17.4446L149.924 17.5286H147.901L147.887 17.4866L146.837 14.4456H142.373L141.323 17.4866L141.309 17.5286H139.286L139.316 17.4446L143.528 5.71704H145.666L145.681 5.75806ZM153.158 17.5286H151.258V5.71704H153.158V17.5286ZM224.182 17.3547H230.497V14.4612H224.182V17.3547ZM281.419 17.3547H287.928V14.9778H281.419V17.3547ZM170.494 6.79419H162.084V10.9788H170.623V12.3313H166.249V15.7405H172.14V17.1252H158.779V15.7405H164.606V12.3313H160.426V5.427H170.494V6.79419ZM204.812 7.78247H211.788V5.29712H213.431V12.8635H209.105V15.7092H214.996V17.1086H201.636V15.7092H207.463V12.8635H203.153V5.29712H204.812V7.78247ZM276.173 16.9954H262.812V15.595H276.173V16.9954ZM253.962 8.05591L253.966 8.302C254.046 10.8433 255.602 13.3345 257.751 14.2932L257.823 14.3254L257.775 14.3889L256.855 15.5989L256.825 15.6399L256.778 15.6174C255.145 14.8404 253.849 13.2716 253.158 11.3577C252.461 13.4082 251.148 15.1058 249.44 15.9397L249.394 15.9631L249.362 15.9202L248.381 14.5676L248.451 14.5354C250.7 13.5302 252.288 10.7956 252.288 8.05591V5.52271H253.962V8.05591ZM178.403 8.05591C178.404 10.683 179.878 13.2887 182.062 14.2776L182.135 14.3098L182.087 14.3723L181.15 15.5999L181.119 15.6399L181.073 15.6174C179.458 14.8097 178.24 13.2278 177.583 11.3176C176.925 13.3334 175.677 15.0345 174.044 15.8909L173.998 15.9153L173.966 15.8743L172.997 14.6311L172.949 14.5696L173.02 14.5364C175.237 13.4835 176.728 10.7164 176.729 8.05591V5.52271H178.403V8.05591ZM246.698 13.1868H245.121V9.40845H243.551V13.1057H242.006V4.57056H243.551V8.00903H245.121V4.32935H246.698V13.1868ZM289.555 13.1223H287.977V4.31274H289.555V13.1223ZM199.533 13.0413H197.875V9.3772H195.179V7.99243H197.875V4.31274H199.533V13.0413ZM286.714 13.0081H285.136V9.26392H283.345V7.89575H285.136V4.55493H286.714V13.0081ZM195.756 6.68091H192.657V6.92603C192.658 8.73492 193.943 10.4896 196.101 11.2249L196.178 11.2502L196.133 11.3176L195.343 12.5286L195.315 12.5696L195.27 12.553C193.68 11.9994 192.498 10.8847 191.854 9.50024C191.195 11.077 189.939 12.3375 188.241 12.9563L188.194 12.9739L188.168 12.9319L187.36 11.7053L187.316 11.6379L187.393 11.6116C189.613 10.8447 190.966 8.91419 190.966 6.94165V6.68091H187.834V5.31274H195.756V6.68091ZM270.282 6.42505C270.282 7.58071 270.9 8.71117 271.868 9.61743C272.836 10.5233 274.149 11.1995 275.525 11.4475L275.611 11.4641L275.568 11.5403L274.857 12.8147L274.835 12.8557L274.79 12.8459C272.51 12.3517 270.399 10.8713 269.427 8.87524C268.439 10.8551 266.338 12.3358 264.051 12.8459L264.004 12.8557L263.982 12.8137L263.304 11.5393L263.265 11.4641L263.348 11.4475C264.708 11.1914 266.009 10.5153 266.969 9.61157C267.929 8.7074 268.543 7.58069 268.543 6.42505V5.26489H270.282V6.42505ZM142.934 12.8352H146.277L144.597 7.98364L142.934 12.8352ZM227.556 5.27954C227.556 7.13485 226.92 8.72376 225.755 9.99634C224.591 11.268 222.901 12.2213 220.795 12.8127L220.746 12.8264L220.723 12.7815L220.057 11.5188L220.131 11.4983C223.419 10.5747 225.454 8.80686 225.789 6.60083H220.845V5.21606H227.556V5.27954ZM238.79 7.10278C238.79 8.70694 239.774 10.3143 241.623 11.0315L241.697 11.0608L241.651 11.1262L240.828 12.304L240.8 12.345L240.754 12.3264C239.462 11.8064 238.535 10.8448 238.002 9.67896C237.446 10.983 236.471 12.1035 235.104 12.6965L235.058 12.717L235.028 12.676L234.188 11.4973L234.144 11.4348L234.215 11.4045C236.145 10.5591 237.18 8.70848 237.18 7.10278V5.18384H238.79V7.10278ZM232.139 12.6379H230.48V9.34497H227.495V7.94458H230.48V4.32935H232.139V12.6379ZM283.372 6.61646H279.337V8.05688H282.808V9.3772H279.337V10.9778C281.205 10.9606 282.457 10.8877 283.912 10.6252L283.978 10.6135L283.985 10.679L284.131 11.8899L284.137 11.9475L284.08 11.9583C282.412 12.266 281.035 12.3313 278.741 12.3313H277.743V5.23267H283.372V6.61646ZM204.812 11.4954H211.788V9.15161H204.812V11.4954Z" fill="#111111"/>
<path d="M149.375 2.5C150.107 2.68 150.687 2.96705 151.027 3.29345C151.59 3.83396 151.875 5 151.875 5C151.875 5 152.16 3.83449 152.723 3.29345C153.063 2.96705 153.643 2.68 154.375 2.5C153.643 2.32 153.063 2.03295 152.723 1.70655C152.16 1.16604 151.875 0 151.875 0C151.875 0 151.59 1.16551 151.027 1.70655C150.687 2.03295 150.107 2.32 149.375 2.5Z" fill="#111111"/>
<path d="M185.336 18.9329H183.693V10.4905H180.466V9.12329H183.693V4.31274H185.336V18.9329ZM260.718 18.9329H259.06V4.31274H260.718V18.9329ZM194.717 13.3196C196.239 13.3196 197.474 13.5702 198.33 14.0432C199.189 14.5179 199.67 15.2197 199.67 16.1106C199.67 17.0012 199.189 17.6976 198.33 18.1702C197.474 18.6412 196.239 18.8925 194.717 18.9006L194.159 18.886C192.89 18.8261 191.848 18.5824 191.097 18.1702C190.236 17.6976 189.755 17.0008 189.764 16.1096C189.756 15.2188 190.236 14.5177 191.097 14.0432C191.955 13.5701 193.194 13.3196 194.717 13.3196ZM246.787 18.9006H245.146V15.1877H236.833V13.8196H246.787V18.9006ZM289.644 18.7229H279.85V13.6428H289.644V18.7229ZM232.228 18.7073H222.645V13.1096H232.228V18.7073ZM194.717 14.6389C193.664 14.6389 192.83 14.7765 192.263 15.0315C191.697 15.286 191.406 15.6519 191.406 16.1106C191.407 16.5607 191.697 16.9264 192.263 17.1809C192.83 17.4359 193.664 17.5727 194.717 17.5647L195.102 17.5608C195.974 17.5365 196.674 17.404 197.171 17.1809C197.737 16.9264 198.027 16.5608 198.027 16.1106C198.027 15.6519 197.737 15.286 197.171 15.0315C196.603 14.7765 195.77 14.6389 194.717 14.6389ZM145.77 5.75806L149.982 17.4446L150.013 17.5286H147.99L147.976 17.4866L146.926 14.4456H142.462L141.412 17.4866L141.397 17.5286H139.375L139.405 17.4446L143.617 5.71704H145.755L145.77 5.75806ZM153.247 17.5286H151.347V5.71704H153.247V17.5286ZM224.271 17.3547H230.586V14.4612H224.271V17.3547ZM281.508 17.3547H288.017V14.9778H281.508V17.3547ZM170.583 6.79419H162.173V10.9788H170.712V12.3313H166.338V15.7405H172.229V17.1252H158.868V15.7405H164.695V12.3313H160.515V5.427H170.583V6.79419ZM204.9 7.78247H211.877V5.29712H213.52V12.8635H209.194V15.7092H215.085V17.1086H201.725V15.7092H207.552V12.8635H203.242V5.29712H204.9V7.78247ZM276.262 16.9954H262.901V15.595H276.262V16.9954ZM254.051 8.05591L254.055 8.302C254.135 10.8433 255.691 13.3345 257.84 14.2932L257.912 14.3254L257.864 14.3889L256.944 15.5989L256.914 15.6399L256.867 15.6174C255.234 14.8404 253.938 13.2716 253.247 11.3577C252.55 13.4082 251.237 15.1058 249.529 15.9397L249.482 15.9631L249.451 15.9202L248.47 14.5676L248.54 14.5354C250.789 13.5302 252.377 10.7956 252.377 8.05591V5.52271H254.051V8.05591ZM178.492 8.05591C178.492 10.683 179.967 13.2887 182.151 14.2776L182.224 14.3098L182.176 14.3723L181.239 15.5999L181.208 15.6399L181.162 15.6174C179.547 14.8097 178.329 13.2278 177.672 11.3176C177.014 13.3334 175.766 15.0345 174.133 15.8909L174.087 15.9153L174.055 15.8743L173.086 14.6311L173.038 14.5696L173.108 14.5364C175.326 13.4835 176.817 10.7164 176.817 8.05591V5.52271H178.492V8.05591ZM246.787 13.1868H245.21V9.40845H243.64V13.1057H242.095V4.57056H243.64V8.00903H245.21V4.32935H246.787V13.1868ZM289.644 13.1223H288.065V4.31274H289.644V13.1223ZM199.622 13.0413H197.964V9.3772H195.268V7.99243H197.964V4.31274H199.622V13.0413ZM286.803 13.0081H285.225V9.26392H283.434V7.89575H285.225V4.55493H286.803V13.0081ZM195.845 6.68091H192.746V6.92603C192.746 8.73492 194.032 10.4896 196.189 11.2249L196.267 11.2502L196.222 11.3176L195.432 12.5286L195.404 12.5696L195.358 12.553C193.769 11.9994 192.587 10.8847 191.943 9.50024C191.284 11.077 190.028 12.3375 188.33 12.9563L188.283 12.9739L188.257 12.9319L187.449 11.7053L187.405 11.6379L187.481 11.6116C189.702 10.8447 191.055 8.91419 191.055 6.94165V6.68091H187.923V5.31274H195.845V6.68091ZM270.371 6.42505C270.371 7.58071 270.989 8.71117 271.957 9.61743C272.925 10.5233 274.238 11.1995 275.614 11.4475L275.7 11.4641L275.657 11.5403L274.946 12.8147L274.924 12.8557L274.879 12.8459C272.599 12.3517 270.488 10.8713 269.516 8.87524C268.528 10.8551 266.427 12.3358 264.14 12.8459L264.093 12.8557L264.071 12.8137L263.393 11.5393L263.354 11.4641L263.437 11.4475C264.797 11.1914 266.098 10.5153 267.058 9.61157C268.018 8.7074 268.632 7.58069 268.632 6.42505V5.26489H270.371V6.42505ZM143.022 12.8352H146.366L144.686 7.98364L143.022 12.8352ZM227.645 5.27954C227.644 7.13485 227.008 8.72376 225.844 9.99634C224.68 11.268 222.99 12.2213 220.884 12.8127L220.835 12.8264L220.812 12.7815L220.146 11.5188L220.22 11.4983C223.508 10.5747 225.543 8.80686 225.878 6.60083H220.934V5.21606H227.645V5.27954ZM238.879 7.10278C238.879 8.70694 239.863 10.3143 241.712 11.0315L241.786 11.0608L241.74 11.1262L240.917 12.304L240.889 12.345L240.843 12.3264C239.551 11.8064 238.624 10.8448 238.091 9.67896C237.535 10.983 236.56 12.1035 235.192 12.6965L235.146 12.717L235.117 12.676L234.277 11.4973L234.232 11.4348L234.304 11.4045C236.234 10.5591 237.269 8.70848 237.269 7.10278V5.18384H238.879V7.10278ZM232.228 12.6379H230.569V9.34497H227.584V7.94458H230.569V4.32935H232.228V12.6379ZM283.461 6.61646H279.426V8.05688H282.896V9.3772H279.426V10.9778C281.294 10.9606 282.545 10.8877 284.001 10.6252L284.066 10.6135L284.074 10.679L284.22 11.8899L284.226 11.9475L284.169 11.9583C282.501 12.266 281.123 12.3313 278.83 12.3313H277.832V5.23267H283.461V6.61646ZM204.9 11.4954H211.877V9.15161H204.9V11.4954Z" fill="#111111"/>
<path d="M149.464 2.5C150.195 2.68 150.776 2.96705 151.116 3.29345C151.679 3.83396 151.964 5 151.964 5C151.964 5 152.249 3.83449 152.812 3.29345C153.152 2.96705 153.732 2.68 154.464 2.5C153.732 2.32 153.152 2.03295 152.812 1.70655C152.249 1.16604 151.964 0 151.964 0C151.964 0 151.679 1.16551 151.116 1.70655C150.776 2.03295 150.195 2.32 149.464 2.5Z" fill="#111111"/>
<path d="M71.7467 12.955C71.2529 12.604 70.6757 12.2767 70.0272 11.9852C69.3905 11.6996 68.7122 11.4259 67.9982 11.17C67.3139 10.9201 66.707 10.694 66.1834 10.4857C65.6717 10.2834 65.2373 10.0752 64.8863 9.86098C64.559 9.65868 64.3091 9.44447 64.1425 9.21242C63.9878 8.99226 63.9164 8.73641 63.9164 8.427C63.9164 8.1176 64.0116 7.83794 64.2139 7.61779C64.4341 7.37383 64.7197 7.17153 65.0767 7.01683C65.4456 6.85617 65.874 6.73717 66.35 6.65982C66.8379 6.58842 67.3318 6.54677 67.8197 6.54677C69.5868 6.54677 71.0506 6.83237 72.1692 7.40358L72.6036 7.62374V5.02949L72.4131 4.95809C71.479 4.60108 70.0569 4.42258 68.0577 4.42258C67.189 4.42258 66.3262 4.49993 65.4932 4.66058C64.6483 4.82123 63.8866 5.06519 63.2262 5.39245C62.5479 5.72565 61.9886 6.16001 61.5721 6.67767C61.1377 7.21913 60.9116 7.85579 60.9116 8.58171C60.9116 9.17672 61.0544 9.70033 61.334 10.1466C61.6078 10.575 61.9826 10.9677 62.4527 11.3009C62.9108 11.6282 63.4523 11.9316 64.0592 12.1994C64.6542 12.4612 65.3087 12.723 65.9989 12.9788C66.6475 13.2228 67.2544 13.4489 67.8197 13.6691C68.3671 13.8833 68.849 14.1034 69.2417 14.3355C69.6225 14.5556 69.9201 14.7996 70.1283 15.0554C70.3187 15.2934 70.4139 15.5612 70.4139 15.8884C70.4139 16.5013 70.1224 16.9654 69.5154 17.2986C68.8609 17.6616 67.8375 17.8401 66.4749 17.8401C66.0703 17.8401 65.63 17.8103 65.1659 17.7508C64.6959 17.6913 64.2198 17.608 63.7438 17.5009C63.2738 17.3938 62.8275 17.257 62.4051 17.1023C61.9886 16.9476 61.6315 16.775 61.34 16.5846L60.8818 16.2871V19.0123L61.0484 19.0956C61.3221 19.2324 61.6911 19.3574 62.1373 19.4645C62.5717 19.5716 63.0358 19.6608 63.5177 19.7322C63.9997 19.8036 64.4817 19.8572 64.9398 19.8929C65.4039 19.9286 65.8026 19.9464 66.1179 19.9464C67.064 19.9464 67.9803 19.875 68.8371 19.7382C69.7059 19.5954 70.4853 19.3633 71.1517 19.042C71.836 18.7148 72.3893 18.2804 72.7999 17.7508C73.2164 17.2034 73.4306 16.537 73.4306 15.7575C73.4306 15.1625 73.27 14.6211 72.9606 14.1629C72.6631 13.7167 72.2584 13.312 71.7527 12.9491L71.7467 12.955Z" fill="#111111"/>
<path d="M81.6536 4.4166C79.4104 4.4166 77.6075 5.14846 76.2985 6.59434C74.9954 8.02832 74.335 9.96805 74.335 12.36C74.335 14.5913 74.9835 16.4299 76.2628 17.8341C77.548 19.2443 79.2795 19.9583 81.4096 19.9583C83.5398 19.9583 85.3486 19.2324 86.6517 17.8044C87.9488 16.3823 88.6033 14.4306 88.6033 12.0089C88.6033 9.7717 87.9607 7.93311 86.6933 6.53484C85.42 5.13061 83.7242 4.42255 81.6476 4.42255L81.6536 4.4166ZM86.2352 12.235C86.2352 14.0141 85.8008 15.4065 84.9381 16.3823C84.0753 17.3581 82.921 17.8341 81.4096 17.8341C79.9995 17.8341 78.8927 17.3343 78.0181 16.3109C77.1434 15.2875 76.7031 13.907 76.7031 12.2053C76.7031 10.5036 77.1553 9.12314 78.0538 8.08782C78.9522 7.0525 80.0887 6.54674 81.5286 6.54674C82.9686 6.54674 84.1348 7.02275 84.9738 8.00451C85.8127 8.98628 86.2352 10.4084 86.2352 12.241V12.235Z" fill="#111111"/>
<path d="M92.5662 6.79069H101.67V4.66055H90.2754V19.7143H92.5662V13.312H101.825V11.1938H92.5662V6.79069Z" fill="#111111"/>
<path d="M102.949 4.66055V6.79069H108.846V19.7143H111.137V6.79069H117.039V4.66055H102.949Z" fill="#111111"/>
<path d="M55.0976 4.46423C57.3051 4.46423 58.4059 5.3508 58.4059 7.12393V17.2391C58.4059 19.0123 57.3051 19.8988 55.0976 19.8988H45.5596V4.46423H55.0976ZM48.8738 7.12988V17.2451H53.7767C54.6573 17.2451 55.1035 16.8881 55.1035 16.18V8.19495C55.1035 7.48689 54.6632 7.12988 53.7767 7.12988H48.8738Z" fill="#E95040"/>
<path d="M13.1259 19.9882H0V4.38699H3.10596V17.2392H13.1259V19.9822V19.9882Z" fill="#E95040"/>
<path d="M40.2943 4.375H30.2803V20H33.3922V7.0704H39.0507C39.8778 7.0704 40.2943 7.42741 40.2943 8.14737V20H43.4062V7.0704C43.4062 5.27347 42.3709 4.375 40.2943 4.375Z" fill="#E95040"/>
<path d="M19.375 16.875C20.1066 17.0548 20.6871 17.3421 21.027 17.6686C21.5898 18.2093 21.875 19.375 21.875 19.375C21.875 19.375 22.1602 18.2093 22.723 17.6686C23.0629 17.3421 23.6434 17.055 24.375 16.875C23.6434 16.6952 23.0629 16.4079 22.723 16.0814C22.1602 15.5407 21.875 14.375 21.875 14.375C21.875 14.375 21.5898 15.5407 21.027 16.0814C20.6871 16.4079 20.1066 16.695 19.375 16.875Z" fill="#E95040"/>
<path d="M17.1539 19.9882L21.7057 8.76625L26.2516 19.9882H29.3635L23.0445 4.38696H20.367L14.042 19.9882H17.1539Z" fill="#E95040"/>
<path d="M129.531 4.375V20H129.219V4.375H129.531Z" fill="#111111"/>
</svg>
