<svg width="208" height="144" viewBox="0 0 208 144" fill="none" xmlns="http://www.w3.org/2000/svg">
<rect x="1" y="1" width="206" height="142" fill="#FFF9F9"/>
<circle cx="91" cy="43" r="23" fill="url(#paint0_linear_32_2782)"/>
<path d="M50.8015 93.1016L53.3718 100.908H53.4812L56.0652 93.1016H58.0203L54.5203 103H52.3328L48.8464 93.1016H50.8015ZM58.834 103V95.5762H60.584V103H58.834ZM59.7227 94.5234C59.1758 94.5234 58.711 94.0996 58.711 93.5664C58.711 93.0469 59.1758 92.623 59.7227 92.623C60.2832 92.623 60.7344 93.0469 60.7344 93.5664C60.7344 94.0996 60.2832 94.5234 59.7227 94.5234ZM65.2669 103.15C63.0247 103.15 61.6575 101.66 61.6575 99.3359C61.6575 97.0391 63.0521 95.4805 65.1712 95.4805C66.9896 95.4805 68.5618 96.6152 68.5618 99.2266V99.7734H63.3802C63.4007 101.038 64.1458 101.783 65.2806 101.783C66.0462 101.783 66.5657 101.455 66.7845 101.018H68.4935C68.179 102.303 66.9896 103.15 65.2669 103.15ZM63.3939 98.584H66.8939C66.8802 97.5723 66.2103 96.834 65.1986 96.834C64.1458 96.834 63.4486 97.6338 63.3939 98.584ZM71.1393 103L69.0338 95.5762H70.8111L72.1236 100.799H72.192L73.5182 95.5762H75.2818L76.6217 100.771H76.69L77.9889 95.5762H79.7662L77.6607 103H75.8424L74.4479 97.9688H74.3521L72.9576 103H71.1393ZM83.6359 103V95.5762H85.3039V96.834H85.3996C85.7004 95.9863 86.4523 95.4805 87.4367 95.4805C88.4484 95.4805 89.1593 95.9863 89.4464 96.834H89.5285C89.8566 96.0137 90.6769 95.4805 91.757 95.4805C93.1105 95.4805 94.0675 96.3555 94.0675 98.0098V103H92.3312V98.2832C92.3312 97.3535 91.7707 96.9434 91.0597 96.9434C90.1984 96.9434 89.7062 97.5312 89.7062 98.3652V103H88.0109V98.2148C88.0109 97.4492 87.4914 96.9434 86.7531 96.9434C86.0011 96.9434 85.3859 97.5586 85.3859 98.4883V103H83.6359ZM98.6957 103.15C96.5356 103.15 95.1411 101.619 95.1411 99.3223C95.1411 97.0117 96.5356 95.4805 98.6957 95.4805C100.87 95.4805 102.25 97.0117 102.25 99.3223C102.25 101.619 100.87 103.15 98.6957 103.15ZM98.7094 101.756C99.8989 101.756 100.487 100.676 100.487 99.3086C100.487 97.9551 99.8989 96.8613 98.7094 96.8613C97.4926 96.8613 96.9047 97.9551 96.9047 99.3086C96.9047 100.676 97.4926 101.756 98.7094 101.756ZM103.324 103V95.5762H105.019V96.8066H105.101C105.361 95.959 106.086 95.4668 106.933 95.4668C107.125 95.4668 107.398 95.4805 107.562 95.5078V97.1211C107.412 97.0664 107.043 97.0117 106.756 97.0117C105.785 97.0117 105.074 97.6816 105.074 98.625V103H103.324ZM111.37 103.15C109.128 103.15 107.761 101.66 107.761 99.3359C107.761 97.0391 109.155 95.4805 111.274 95.4805C113.093 95.4805 114.665 96.6152 114.665 99.2266V99.7734H109.483C109.504 101.038 110.249 101.783 111.384 101.783C112.149 101.783 112.669 101.455 112.888 101.018H114.597C114.282 102.303 113.093 103.15 111.37 103.15ZM109.497 98.584H112.997C112.983 97.5723 112.313 96.834 111.302 96.834C110.249 96.834 109.552 97.6338 109.497 98.584ZM118.781 103V95.5762H120.476V96.8066H120.558C120.818 95.959 121.543 95.4668 122.39 95.4668C122.582 95.4668 122.855 95.4805 123.019 95.5078V97.1211C122.869 97.0664 122.5 97.0117 122.212 97.0117C121.242 97.0117 120.531 97.6816 120.531 98.625V103H118.781ZM126.827 103.15C124.585 103.15 123.218 101.66 123.218 99.3359C123.218 97.0391 124.612 95.4805 126.731 95.4805C128.55 95.4805 130.122 96.6152 130.122 99.2266V99.7734H124.94C124.961 101.038 125.706 101.783 126.841 101.783C127.606 101.783 128.126 101.455 128.345 101.018H130.054C129.739 102.303 128.55 103.15 126.827 103.15ZM124.954 98.584H128.454C128.44 97.5723 127.77 96.834 126.759 96.834C125.706 96.834 125.009 97.6338 124.954 98.584ZM135.406 97.6953C135.297 97.1348 134.832 96.7793 134.094 96.7793C133.342 96.7793 132.795 97.1484 132.809 97.6543C132.795 98.0371 133.109 98.3242 133.861 98.502L135.119 98.7617C136.527 99.0762 137.197 99.7188 137.211 100.785C137.197 102.18 135.981 103.15 134.039 103.15C132.152 103.15 131.031 102.303 130.854 100.881H132.631C132.74 101.51 133.233 101.824 134.039 101.824C134.873 101.824 135.434 101.482 135.434 100.936C135.434 100.512 135.092 100.238 134.354 100.074L133.164 99.8145C131.783 99.541 131.072 98.8164 131.072 97.75C131.072 96.3828 132.248 95.4805 134.067 95.4805C135.844 95.4805 136.938 96.3418 137.061 97.6953H135.406ZM143.001 99.8828V95.5762H144.738V103H143.056V101.688H142.974C142.632 102.508 141.853 103.096 140.746 103.096C139.283 103.096 138.271 102.084 138.257 100.307V95.5762H140.007V100.033C140.007 100.977 140.568 101.578 141.415 101.578C142.181 101.578 143.001 101.018 143.001 99.8828ZM147.876 93.1016V103H146.126V93.1016H147.876ZM152.969 95.5762V96.916H151.506V100.771C151.506 101.482 151.861 101.633 152.299 101.633C152.504 101.633 152.846 101.619 153.064 101.605V103.027C152.859 103.068 152.518 103.096 152.08 103.096C150.768 103.096 149.756 102.453 149.77 101.059V96.916H148.703V95.5762H149.77V93.7988H151.506V95.5762H152.969ZM158.13 97.6953C158.021 97.1348 157.556 96.7793 156.818 96.7793C156.066 96.7793 155.519 97.1484 155.532 97.6543C155.519 98.0371 155.833 98.3242 156.585 98.502L157.843 98.7617C159.251 99.0762 159.921 99.7188 159.935 100.785C159.921 102.18 158.704 103.15 156.763 103.15C154.876 103.15 153.755 102.303 153.577 100.881H155.355C155.464 101.51 155.956 101.824 156.763 101.824C157.597 101.824 158.157 101.482 158.157 100.936C158.157 100.512 157.816 100.238 157.077 100.074L155.888 99.8145C154.507 99.541 153.796 98.8164 153.796 97.75C153.796 96.3828 154.972 95.4805 156.79 95.4805C158.568 95.4805 159.661 96.3418 159.784 97.6953H158.13ZM37.6721 113.576V114.561H36.0315V121H34.8421V114.561H33.6526V113.576H34.8421V112.564C34.8421 111.361 35.6487 110.637 36.9612 110.637C37.2483 110.637 37.5901 110.678 37.8362 110.719V111.771C37.5901 111.73 37.3714 111.717 37.221 111.717C36.4007 111.717 36.0315 112.059 36.0315 112.824V113.576H37.6721ZM38.7867 121V113.576H39.9214V114.711H40.0035C40.2769 113.959 41.0425 113.453 41.9175 113.453C42.0953 113.453 42.3961 113.467 42.5328 113.48V114.67C42.4507 114.643 42.1226 114.588 41.8218 114.588C40.7554 114.588 39.9625 115.326 39.9625 116.324V121H38.7867ZM46.1903 121.15C44.1668 121.15 42.7996 119.633 42.7996 117.322C42.7996 115.012 44.1668 113.48 46.1903 113.48C48.2 113.48 49.5536 115.012 49.5536 117.322C49.5536 119.633 48.2 121.15 46.1903 121.15ZM46.1903 120.111C47.6805 120.111 48.3778 118.799 48.3778 117.322C48.3778 115.846 47.6805 114.52 46.1903 114.52C44.6727 114.52 43.9754 115.846 43.9754 117.322C43.9754 118.799 44.6727 120.111 46.1903 120.111ZM50.8185 121V113.576H51.9532V114.738H52.0489C52.3634 113.945 53.0743 113.48 54.045 113.48C55.0157 113.48 55.672 113.945 56.0275 114.738H56.1095C56.4923 113.973 57.2716 113.48 58.338 113.48C59.6642 113.48 60.6075 114.287 60.6075 116.037V121H59.4318V116.051C59.4318 114.957 58.7345 114.533 57.9279 114.533C56.8888 114.533 56.3009 115.23 56.3009 116.174V121H55.1114V115.928C55.1114 115.094 54.5099 114.533 53.6622 114.533C52.7736 114.533 51.9943 115.285 51.9943 116.365V121H50.8185ZM66.1999 123.789C65.9401 123.789 65.694 123.775 65.5436 123.762V122.709C65.6667 122.723 65.9401 122.736 66.1179 122.736C66.5964 122.736 66.9929 122.695 67.3893 121.615L67.6081 121.055L64.86 113.576H66.1452L68.1686 119.469H68.2507L70.2741 113.576H71.5593L68.4147 122.066C67.9772 123.229 67.2526 123.789 66.1999 123.789ZM75.3398 121.15C73.3164 121.15 71.9492 119.633 71.9492 117.322C71.9492 115.012 73.3164 113.48 75.3398 113.48C77.3496 113.48 78.7031 115.012 78.7031 117.322C78.7031 119.633 77.3496 121.15 75.3398 121.15ZM75.3398 120.111C76.83 120.111 77.5273 118.799 77.5273 117.322C77.5273 115.846 76.83 114.52 75.3398 114.52C73.8222 114.52 73.125 115.846 73.125 117.322C73.125 118.799 73.8222 120.111 75.3398 120.111ZM84.6575 117.951V113.576H85.8196V121H84.6575V119.742H84.5754C84.22 120.494 83.4954 121.096 82.3743 121.096C80.9661 121.096 79.968 120.18 79.968 118.293V113.576H81.1438V118.211C81.1438 119.277 81.8137 119.961 82.7571 119.961C83.5911 119.961 84.6575 119.332 84.6575 117.951ZM87.4263 121V113.576H88.5611V114.711H88.6431C88.9165 113.959 89.6821 113.453 90.5571 113.453C90.7349 113.453 91.0357 113.467 91.1724 113.48V114.67C91.0904 114.643 90.7622 114.588 90.4614 114.588C89.395 114.588 88.6021 115.326 88.6021 116.324V121H87.4263ZM96.4503 111.102V121H95.2745V111.102H96.4503ZM98.0433 121V113.576H99.2191V121H98.0433ZM98.6312 112.346C98.18 112.346 97.8109 112.004 97.8109 111.566C97.8109 111.129 98.18 110.787 98.6312 110.787C99.0824 110.787 99.4652 111.129 99.4652 111.566C99.4652 112.004 99.0824 112.346 98.6312 112.346ZM100.963 121V111.102H102.138V114.752H102.234C102.494 114.355 102.931 113.48 104.381 113.48C106.24 113.48 107.552 114.957 107.552 117.309C107.552 119.66 106.24 121.15 104.394 121.15C102.972 121.15 102.494 120.275 102.234 119.865H102.097V121H100.963ZM102.111 117.281C102.111 118.949 102.863 120.098 104.216 120.098C105.625 120.098 106.363 118.867 106.363 117.281C106.363 115.736 105.652 114.533 104.216 114.533C102.849 114.533 102.111 115.641 102.111 117.281ZM108.804 121V113.576H109.938V114.711H110.02C110.294 113.959 111.059 113.453 111.934 113.453C112.112 113.453 112.413 113.467 112.55 113.48V114.67C112.468 114.643 112.14 114.588 111.839 114.588C110.772 114.588 109.979 115.326 109.979 116.324V121H108.804ZM113.049 118.895C113.049 117.186 114.553 116.803 115.838 116.707C116.31 116.673 117.513 116.611 117.848 116.598V115.996C117.848 115.053 117.287 114.506 116.166 114.506C115.223 114.506 114.662 114.943 114.498 115.504H113.268C113.418 114.314 114.58 113.48 116.221 113.48C117.192 113.48 119.01 113.768 119.01 116.105V121H117.848V119.988H117.793C117.547 120.494 116.863 121.178 115.578 121.178C114.17 121.178 113.049 120.344 113.049 118.895ZM114.225 118.949C114.225 119.729 114.881 120.125 115.783 120.125C117.11 120.125 117.848 119.236 117.848 118.307V117.555L115.975 117.691C114.908 117.76 114.225 118.143 114.225 118.949ZM120.617 121V113.576H121.751V114.711H121.833C122.107 113.959 122.873 113.453 123.748 113.453C123.925 113.453 124.226 113.467 124.363 113.48V114.67C124.281 114.643 123.953 114.588 123.652 114.588C122.585 114.588 121.792 115.326 121.792 116.324V121H120.617ZM126.216 123.789C125.956 123.789 125.71 123.775 125.559 123.762V122.709C125.682 122.723 125.956 122.736 126.134 122.736C126.612 122.736 127.009 122.695 127.405 121.615L127.624 121.055L124.876 113.576H126.161L128.184 119.469H128.266L130.29 113.576H131.575L128.43 122.066C127.993 123.229 127.268 123.789 126.216 123.789ZM139.956 115.504C139.792 114.889 139.327 114.479 138.452 114.479C137.536 114.479 136.88 114.971 136.88 115.6C136.88 116.092 137.277 116.434 138.152 116.639L139.259 116.912C140.585 117.227 141.242 117.883 141.242 118.922C141.242 120.207 140.189 121.15 138.329 121.15C136.661 121.15 135.663 120.412 135.472 119.059H136.702C136.839 119.783 137.372 120.125 138.302 120.125C139.355 120.125 140.025 119.688 140.025 118.99C140.025 118.471 139.656 118.115 138.808 117.924L137.687 117.664C136.388 117.363 135.704 116.652 135.704 115.668C135.704 114.396 136.812 113.48 138.452 113.48C139.984 113.48 140.954 114.301 141.105 115.504H139.956ZM145.61 121.15C143.463 121.15 142.137 119.633 142.137 117.35C142.137 115.066 143.477 113.48 145.501 113.48C147.059 113.48 148.7 114.438 148.7 117.186V117.678H143.313C143.368 119.25 144.284 120.111 145.61 120.111C146.499 120.111 147.059 119.729 147.333 119.264H148.59C148.235 120.385 147.141 121.15 145.61 121.15ZM143.327 116.68H147.51C147.51 115.436 146.717 114.52 145.501 114.52C144.215 114.52 143.395 115.531 143.327 116.68ZM149.596 118.895C149.596 117.186 151.099 116.803 152.385 116.707C152.856 116.673 154.059 116.611 154.394 116.598V115.996C154.394 115.053 153.834 114.506 152.713 114.506C151.769 114.506 151.209 114.943 151.045 115.504H149.814C149.965 114.314 151.127 113.48 152.767 113.48C153.738 113.48 155.557 113.768 155.557 116.105V121H154.394V119.988H154.34C154.094 120.494 153.41 121.178 152.125 121.178C150.717 121.178 149.596 120.344 149.596 118.895ZM150.771 118.949C150.771 119.729 151.428 120.125 152.33 120.125C153.656 120.125 154.394 119.236 154.394 118.307V117.555L152.521 117.691C151.455 117.76 150.771 118.143 150.771 118.949ZM157.163 121V113.576H158.298V114.711H158.38C158.653 113.959 159.419 113.453 160.294 113.453C160.472 113.453 160.773 113.467 160.909 113.48V114.67C160.827 114.643 160.499 114.588 160.198 114.588C159.132 114.588 158.339 115.326 158.339 116.324V121H157.163ZM164.567 121.15C162.461 121.15 161.176 119.551 161.176 117.322C161.176 115.066 162.516 113.48 164.539 113.48C166.125 113.48 167.301 114.41 167.493 115.818H166.317C166.153 115.135 165.551 114.52 164.567 114.52C163.241 114.52 162.352 115.613 162.352 117.281C162.352 119.004 163.213 120.098 164.567 120.098C165.442 120.098 166.112 119.633 166.317 118.812H167.493C167.301 120.139 166.221 121.15 164.567 121.15ZM169.838 116.543V121H168.662V111.102H169.838V114.738H169.933C170.275 113.973 170.945 113.48 172.121 113.48C173.638 113.48 174.65 114.383 174.65 116.283V121H173.474V116.365C173.474 115.203 172.832 114.533 171.765 114.533C170.658 114.533 169.838 115.258 169.838 116.543Z" fill="#333333"/>
<path d="M86.166 71.6668V67.5002H127.833V71.6668H86.166ZM90.3327 63.3335V46.6668H94.4993V63.3335H90.3327ZM98.666 63.3335V38.3335H102.833V63.3335H98.666ZM106.999 63.3335V38.3335H111.166V63.3335H106.999ZM121.583 63.3335L113.249 48.7502L116.895 46.6668L125.229 61.2502L121.583 63.3335Z" fill="#E95040"/>
<defs>
<linearGradient id="paint0_linear_32_2782" x1="68" y1="23.5" x2="97" y2="47" gradientUnits="userSpaceOnUse">
<stop stop-color="#FFD5D1"/>
<stop offset="1" stop-color="#FFF9F9"/>
</linearGradient>
</defs>
</svg>
