<svg width="72" height="63" viewBox="0 0 72 63" fill="none" xmlns="http://www.w3.org/2000/svg">
<path d="M17 30V26.25H55V30H17ZM20.8 22.5V7.5H24.6V22.5H20.8ZM28.4 22.5V0H32.2V22.5H28.4ZM36 22.5V0H39.8V22.5H36ZM49.3 22.5L41.7 9.375L45.025 7.5L52.625 20.625L49.3 22.5Z" fill="#CCD6E3"/>
<path d="M21.9609 62.292H21.1768V58.2588H19.6338V57.6055H21.1768V55.3066H21.9609V62.292ZM57.9814 62.292H57.1895V55.3066H57.9814V62.292ZM26.4443 59.6104C27.1718 59.6104 27.7618 59.73 28.1709 59.9561C28.5813 60.1829 28.8105 60.5187 28.8105 60.9443C28.8103 61.3697 28.5809 61.702 28.1709 61.9277C27.7618 62.1528 27.1709 62.2735 26.4434 62.2773C25.7162 62.2734 25.1248 62.1527 24.7148 61.9277C24.3035 61.7019 24.0732 61.3692 24.0771 60.9434C24.0734 60.5178 24.3037 60.1827 24.7148 59.9561C25.1249 59.7301 25.717 59.6104 26.4443 59.6104ZM51.3252 62.2773H50.541V60.5029H46.5684V59.8496H51.3252V62.2773ZM71.8027 62.1924H67.123V59.7646H71.8027V62.1924ZM44.3682 62.1846H39.7891V59.5098H44.3682V62.1846ZM26.4443 60.2412C25.941 60.2412 25.5426 60.3068 25.2715 60.4287C25.001 60.5503 24.8623 60.7252 24.8623 60.9443C24.8625 61.1593 25.0011 61.3335 25.2715 61.4551C25.5426 61.5769 25.9412 61.6425 26.4443 61.6387C26.9473 61.6425 27.3451 61.5769 27.6162 61.4551C27.8866 61.3335 28.0261 61.1593 28.0264 60.9443C28.0264 60.7251 27.8867 60.5503 27.6162 60.4287C27.3451 60.3069 26.9474 60.2412 26.4443 60.2412ZM3.05566 55.9971L5.06836 61.582L5.08301 61.6221H4.11719L4.10938 61.6016L3.6084 60.1484H1.47559L0.973633 61.6016L0.96582 61.6221H0L0.0146484 61.582L2.02734 55.9775H3.04883L3.05566 55.9971ZM6.62891 61.6221H5.7207V55.9775H6.62891V61.6221ZM40.5654 61.5391H43.584V60.1562H40.5654V61.5391ZM67.916 61.5381H71.0254V60.4023H67.916V61.5381ZM14.9121 56.4922H10.8936V58.4922H14.9736V59.1377H12.8838V60.7676H15.6982V61.4287H9.31445V60.7676H12.0986V59.1377H10.1016V55.8389H14.9121V56.4922ZM31.3096 56.9648H34.6436V55.7773H35.4277V59.3926H33.3613V60.752H36.1758V61.4209H29.792V60.752H32.5762V59.3926H30.5166V55.7773H31.3096V56.9648ZM65.4082 61.3672H59.0244V60.6982H65.4082V61.3672ZM54.7959 57.0947L54.7979 57.2129C54.8364 58.4271 55.5796 59.6171 56.6064 60.0752L56.6406 60.0908L56.6182 60.1211L56.1787 60.6992L56.1641 60.7188L56.1416 60.708C55.3613 60.3367 54.7421 59.5874 54.4121 58.6729C54.0788 59.6527 53.4506 60.4638 52.6348 60.8623L52.6123 60.873L52.5977 60.8535L52.1289 60.207L52.1621 60.1914C53.237 59.7111 53.9961 58.404 53.9961 57.0947V55.8848H54.7959V57.0947ZM18.6914 57.0947C18.6914 58.3501 19.3955 59.5958 20.4395 60.0684L20.4736 60.083L20.4512 60.1133L20.0039 60.7002L19.9893 60.7197L19.9668 60.708C19.1949 60.322 18.6127 59.5661 18.2988 58.6533C17.9846 59.6167 17.3879 60.4297 16.6074 60.8389L16.5859 60.8506L16.5703 60.8311L16.1074 60.2373L16.085 60.208L16.1182 60.1914C17.1777 59.6883 17.8906 58.366 17.8906 57.0947V55.8848H18.6914V57.0947ZM51.3252 59.5469H50.5713V57.7422H49.8213V59.5078H49.083V55.4297H49.8213V57.0732H50.5713V55.3145H51.3252V59.5469ZM71.8027 59.5156H71.0488V55.3066H71.8027V59.5156ZM28.7881 59.4775H27.9951V57.7266H26.707V57.0654H27.9951V55.3066H28.7881V59.4775ZM70.4453 59.4619H69.6914V57.6729H68.8359V57.0186H69.6914V55.4219H70.4453V59.4619ZM26.9824 56.4385H25.502V56.5557C25.5022 57.4199 26.1167 58.258 27.1475 58.6094L27.1846 58.6221L27.1631 58.6543L26.7852 59.2324L26.7725 59.252L26.75 59.2441C25.9907 58.9796 25.4254 58.4467 25.1182 57.7852C24.8029 58.5386 24.2028 59.1409 23.3916 59.4365L23.3701 59.4453L23.3574 59.4258L22.9717 58.8389L22.9502 58.8066L22.9863 58.7949C24.0474 58.4285 24.6943 57.5051 24.6943 56.5625V56.4385H23.1982V55.7852H26.9824V56.4385ZM62.5938 56.3154C62.5938 56.8677 62.8888 57.4087 63.3516 57.8418C63.814 58.2745 64.4412 58.5973 65.0986 58.7158L65.1396 58.7236L65.1191 58.7598L64.7803 59.3691L64.7695 59.3887L64.748 59.3838C63.6588 59.1476 62.6492 58.441 62.1846 57.4873C61.7127 58.433 60.7088 59.1401 59.6162 59.3838L59.5938 59.3887L59.583 59.3691L59.2588 58.7598L59.2402 58.7236L59.2803 58.7158C59.9301 58.5934 60.5522 58.2707 61.0107 57.8389C61.4695 57.4068 61.7627 56.8677 61.7627 56.3154V55.7617H62.5938V56.3154ZM1.74316 59.3789H3.34082L2.53809 57.0605L1.74316 59.3789ZM42.1777 55.7686C42.1777 56.6551 41.8739 57.4144 41.3174 58.0225C40.7612 58.6301 39.9537 59.0856 38.9473 59.3682L38.9238 59.375L38.9131 59.3535L38.5947 58.75L38.6299 58.7402C40.2009 58.299 41.1737 57.4544 41.334 56.4004H38.9717V55.7383H42.1777V55.7686ZM47.5459 56.6396C47.5459 57.4062 48.017 58.1749 48.9004 58.5176L48.9355 58.5312L48.9141 58.5625L48.5205 59.125L48.5068 59.1445L48.4844 59.1357C47.8672 58.8873 47.4246 58.428 47.1699 57.8711C46.9042 58.494 46.4385 59.0291 45.7852 59.3125L45.7627 59.3223L45.749 59.3027L45.3477 58.7402L45.3262 58.71L45.3604 58.6953C46.2825 58.2913 46.7764 57.4068 46.7764 56.6396V55.7227H47.5459V56.6396ZM44.3682 59.2842H43.5762V57.7109H42.1494V57.042H43.5762V55.3145H44.3682V59.2842ZM68.8486 56.4072H66.9209V57.0957H68.5791V57.7266H66.9209V58.4912C67.8132 58.483 68.4112 58.4486 69.1064 58.3232L69.1377 58.3174L69.1416 58.3486L69.2109 58.9268L69.2148 58.9551L69.1875 58.96C68.3905 59.107 67.7323 59.1377 66.6367 59.1377H66.1592V55.7461H68.8486V56.4072ZM31.3096 58.7383H34.6436V57.6182H31.3096V58.7383Z" fill="#CCD6E3"/>
<path d="M4.82129 54.4402C5.17084 54.5262 5.44833 54.6633 5.61071 54.8193C5.87959 55.0776 6.01586 55.6348 6.01586 55.6348C6.01586 55.6348 6.15213 55.0778 6.42101 54.8193C6.58339 54.6633 6.86088 54.5262 7.21043 54.4402C6.86088 54.3542 6.58339 54.217 6.42101 54.061C6.15213 53.8028 6.01586 53.2456 6.01586 53.2456C6.01586 53.2456 5.87959 53.8025 5.61071 54.061C5.44833 54.217 5.17084 54.3542 4.82129 54.4402Z" fill="#CCD6E3"/>
<path d="M44.1359 45.0298C43.8464 44.824 43.508 44.6321 43.1278 44.4612C42.7546 44.2938 42.3569 44.1333 41.9384 43.9833C41.5372 43.8368 41.1815 43.7043 40.8745 43.5822C40.5745 43.4636 40.3199 43.3415 40.1141 43.216C39.9222 43.0974 39.7757 42.9718 39.6781 42.8358C39.5874 42.7067 39.5455 42.5567 39.5455 42.3753C39.5455 42.1939 39.6013 42.03 39.7199 41.9009C39.849 41.7579 40.0164 41.6393 40.2257 41.5486C40.442 41.4545 40.6931 41.3847 40.9722 41.3394C41.2582 41.2975 41.5477 41.2731 41.8337 41.2731C42.8697 41.2731 43.7278 41.4405 44.3835 41.7754L44.6382 41.9044V40.3836L44.5265 40.3418C43.9789 40.1325 43.1453 40.0278 41.9733 40.0278C41.464 40.0278 40.9582 40.0732 40.4699 40.1674C39.9746 40.2615 39.5281 40.4045 39.1409 40.5964C38.7433 40.7917 38.4154 41.0464 38.1712 41.3498C37.9166 41.6672 37.784 42.0405 37.784 42.466C37.784 42.8148 37.8678 43.1218 38.0317 43.3834C38.1922 43.6345 38.4119 43.8647 38.6875 44.0601C38.956 44.2519 39.2735 44.4298 39.6292 44.5868C39.9781 44.7403 40.3617 44.8937 40.7664 45.0437C41.1466 45.1867 41.5024 45.3193 41.8337 45.4483C42.1546 45.5739 42.4372 45.703 42.6674 45.839C42.8906 45.9681 43.065 46.1111 43.1871 46.2611C43.2987 46.4006 43.3545 46.5576 43.3545 46.7494C43.3545 47.1087 43.1836 47.3808 42.8278 47.5761C42.4441 47.7889 41.8442 47.8935 41.0454 47.8935C40.8082 47.8935 40.5501 47.8761 40.278 47.8412C40.0025 47.8063 39.7234 47.7575 39.4444 47.6947C39.1688 47.6319 38.9072 47.5517 38.6596 47.461C38.4154 47.3703 38.2061 47.2691 38.0352 47.1575L37.7666 46.9831V48.5807L37.8643 48.6295C38.0247 48.7097 38.241 48.783 38.5026 48.8458C38.7572 48.9086 39.0293 48.9609 39.3118 49.0027C39.5944 49.0446 39.8769 49.076 40.1455 49.0969C40.4176 49.1178 40.6513 49.1283 40.8361 49.1283C41.3907 49.1283 41.9279 49.0864 42.4302 49.0062C42.9395 48.9225 43.3964 48.7865 43.7871 48.5981C44.1882 48.4063 44.5126 48.1516 44.7533 47.8412C44.9974 47.5203 45.123 47.1296 45.123 46.6727C45.123 46.3239 45.0288 46.0064 44.8474 45.7379C44.673 45.4763 44.4358 45.2391 44.1394 45.0263L44.1359 45.0298Z" fill="#CCD6E3"/>
<path d="M49.9437 40.0244C48.6287 40.0244 47.5718 40.4535 46.8044 41.3011C46.0405 42.1417 45.6533 43.2788 45.6533 44.681C45.6533 45.9891 46.0335 47.0669 46.7835 47.8901C47.5369 48.7168 48.5519 49.1353 49.8007 49.1353C51.0494 49.1353 52.1098 48.7098 52.8737 47.8727C53.6341 47.039 54.0178 45.8949 54.0178 44.4752C54.0178 43.1637 53.6411 42.0859 52.8981 41.2662C52.1517 40.443 51.1575 40.0279 49.9402 40.0279L49.9437 40.0244ZM52.6295 44.6078C52.6295 45.6507 52.3749 46.4669 51.8691 47.039C51.3633 47.611 50.6867 47.8901 49.8007 47.8901C48.974 47.8901 48.3252 47.5971 47.8125 46.9971C47.2997 46.3972 47.0416 45.5879 47.0416 44.5903C47.0416 43.5927 47.3067 42.7835 47.8334 42.1766C48.3601 41.5696 49.0263 41.2732 49.8704 41.2732C50.7146 41.2732 51.3982 41.5522 51.89 42.1277C52.3819 42.7033 52.6295 43.5369 52.6295 44.6113V44.6078Z" fill="#CCD6E3"/>
<path d="M56.341 41.4157H61.6778V40.167H54.998V48.9919H56.341V45.2387H61.7685V43.9969H56.341V41.4157Z" fill="#CCD6E3"/>
<path d="M62.4277 40.1675V41.4162H65.8844V48.9924H67.2274V41.4162H70.6876V40.1675H62.4277Z" fill="#CCD6E3"/>
<path d="M34.3766 40.0527C35.6707 40.0527 36.316 40.5725 36.316 41.6119V47.5417C36.316 48.5812 35.6707 49.1009 34.3766 49.1009H28.7852V40.0527H34.3766ZM30.728 41.6154V47.5452H33.6022C34.1185 47.5452 34.3801 47.3359 34.3801 46.9208V42.2398C34.3801 41.8247 34.1219 41.6154 33.6022 41.6154H30.728Z" fill="#CCD6E3"/>
<path d="M9.77092 49.1531H2.07617V40.0073H3.89696V47.5416H9.77092V49.1496V49.1531Z" fill="#CCD6E3"/>
<path d="M25.6976 40H19.8271V49.1598H21.6514V41.5801H24.9686C25.4535 41.5801 25.6976 41.7894 25.6976 42.2115V49.1598H27.5219V41.5801C27.5219 40.5267 26.915 40 25.6976 40Z" fill="#CCD6E3"/>
<path d="M13.4346 47.3279C13.8634 47.4333 14.2038 47.6017 14.403 47.7931C14.7329 48.1101 14.9001 48.7934 14.9001 48.7934C14.9001 48.7934 15.0673 48.1101 15.3972 47.7931C15.5965 47.6017 15.9368 47.4334 16.3657 47.3279C15.9368 47.2225 15.5965 47.0541 15.3972 46.8626C15.0673 46.5457 14.9001 45.8623 14.9001 45.8623C14.9001 45.8623 14.7329 46.5457 14.403 46.8626C14.2038 47.0541 13.8634 47.2223 13.4346 47.3279Z" fill="#CCD6E3"/>
<path d="M12.1319 49.1526L14.8003 42.5741L17.4652 49.1526H19.2895L15.5851 40.0068H14.0155L10.3076 49.1526H12.1319Z" fill="#CCD6E3"/>
</svg>
