<svg width="380" height="60" viewBox="0 0 380 60" fill="none" xmlns="http://www.w3.org/2000/svg">
<circle cx="23" cy="23" r="23" fill="url(#paint0_linear_32_136)"/>
<path d="M27.1094 50H20.7812L30.5859 21.7188H38.125L47.8906 50H41.6016L39.4922 43.4766H29.2578L27.1094 50ZM30.7422 38.9062H38.0078L34.4531 28.0859H34.2578L30.7422 38.9062ZM56.1531 21.7188V50H50.2938V21.7188H56.1531ZM96.1937 33.9453V37.8906H85.8812V45.4688H99.7484V49.5312H67.2094V45.4688H80.9203V37.8906H71.0375V20.5469H95.9203V24.5312H76.0375V33.9453H96.1937ZM114.417 26.0938C114.417 32.7734 117.113 39.2578 123.05 41.8359L120.003 45.8203C116.058 43.8867 113.421 40.3516 111.956 35.9766C110.394 40.625 107.659 44.4336 103.597 46.4453L100.472 42.3828C106.566 39.6484 109.339 32.7734 109.378 26.0938V20.7812H114.417V26.0938ZM130.98 18.0469V53.6719H126.058V33.2422H119.066V29.2188H126.058V18.0469H130.98ZM164.711 18.0469V39.1406H159.75V30.7422H154.203V26.7188H159.75V18.0469H164.711ZM152.562 39.9219C160.141 39.9609 164.789 42.4609 164.828 46.7969C164.789 51.0938 160.141 53.6328 152.562 53.6328C144.984 53.6328 140.336 51.0938 140.336 46.7969C140.336 42.4609 144.984 39.9609 152.562 39.9219ZM152.562 43.75C147.836 43.75 145.297 44.7266 145.297 46.7969C145.297 48.8281 147.836 49.8438 152.562 49.8438C157.289 49.8438 159.867 48.8281 159.867 46.7969C159.867 44.7266 157.289 43.75 152.562 43.75ZM155.258 20.1953V24.1797H148.188C148.305 28.3203 150.805 32.5 156.352 34.3359L153.891 38.2422C149.965 36.9727 147.27 34.3945 145.727 31.1719C144.145 34.8047 141.312 37.7344 137.094 39.1797L134.516 35.2344C140.355 33.2812 142.973 28.6328 143.109 24.1797H135.961V20.1953H155.258ZM201.059 45.3906V49.4531H168.52V45.3906H182.231V38.8281H171.958V20.3125H176.958V25.8203H192.466V20.3125H197.427V38.8281H187.192V45.3906H201.059ZM176.958 34.8438H192.466V29.8047H176.958V34.8438ZM229.147 20.1172C229.147 29.4141 223.288 35.8594 212.858 38.75L210.905 34.8828C218.561 32.8125 222.975 28.9062 223.834 24.1016H212.819V20.1172H229.147ZM240.67 18.0859V37.9688H235.709V30.5859H229.381V26.5234H235.709V18.0859H240.67ZM240.67 39.375V53.1641H217.116V39.375H240.67ZM221.998 43.2812V49.2578H235.748V43.2812H221.998ZM255.847 24.2188C255.847 28.1641 257.8 32.0312 262.527 33.9062L259.831 37.7344C256.843 36.5234 254.753 34.3359 253.503 31.6406C252.175 34.7266 249.948 37.2852 246.628 38.6719L243.972 34.8047C248.972 32.6562 251.003 28.2422 251.003 24.2188V20.1172H255.847V24.2188ZM275.027 18.0859V39.6094H270.3V30.7812H267.331V39.4141H262.683V18.6328H267.331V26.7188H270.3V18.0859H275.027ZM275.027 41.1719V53.5938H270.066V45.1562H250.456V41.1719H275.027ZM292.078 26.0938C292.078 32.6172 295.047 39.1797 301.062 41.7188L298.133 45.7031C294.07 43.8672 291.258 40.332 289.656 35.9375C288.035 40.7227 285.125 44.5898 280.789 46.5625L277.781 42.4219C283.992 39.8047 287 33.0078 287.039 26.0938V20.7812H292.078V26.0938ZM308.016 18.0469V53.6719H302.977V18.0469H308.016ZM330.731 22.7344C330.731 27.9297 335.341 33.5156 343.388 34.8828L341.2 39.0234C335.009 37.793 330.399 34.3164 328.114 29.7266C325.751 34.2773 321.141 37.7734 314.989 39.0234L312.841 34.8828C320.731 33.4766 325.38 27.8906 325.419 22.7344V20.1562H330.731V22.7344ZM344.559 45.1172V49.2188H312.02V45.1172H344.559ZM360.752 20.1562V24.1797H351.962V26.9922H359.423V30.8203H351.962V33.9062C355.849 33.8477 358.681 33.6914 361.962 33.1641L362.47 37.0312C358.369 37.7344 354.97 37.8516 349.619 37.8516H347.197V20.1562H360.752ZM376.337 18.0469V39.2578H371.611V18.0469H376.337ZM369.267 18.5938V39.0234H364.541V30.5859H360.947V26.6016H364.541V18.5938H369.267ZM376.337 40.6641V53.2031H352.08V40.6641H376.337ZM357.041 44.5703V49.2188H371.416V44.5703H357.041Z" fill="url(#paint1_linear_32_136)"/>
<path d="M45 8.5C47.3409 9.11199 49.1993 10.088 50.2867 11.1977C52.0874 13.0355 53 17 53 17C53 17 53.9126 13.0373 55.7133 11.1977C56.8007 10.088 58.6591 9.11199 61 8.5C58.6591 7.88802 56.8007 6.91205 55.7133 5.80227C53.9126 3.96452 53 0 53 0C53 0 52.0874 3.96274 50.2867 5.80227C49.1993 6.91205 47.3409 7.88802 45 8.5Z" fill="url(#paint2_linear_32_136)"/>
<defs>
<linearGradient id="paint0_linear_32_136" x1="-7" y1="-9" x2="28" y2="30" gradientUnits="userSpaceOnUse">
<stop stop-color="#FFDEDB"/>
<stop offset="1" stop-color="white"/>
</linearGradient>
<linearGradient id="paint1_linear_32_136" x1="115.367" y1="70.5" x2="53.4354" y2="13.7047" gradientUnits="userSpaceOnUse">
<stop stop-color="#111111"/>
<stop offset="1" stop-color="#E95040"/>
</linearGradient>
<linearGradient id="paint2_linear_32_136" x1="139.5" y1="64" x2="74.5" y2="23" gradientUnits="userSpaceOnUse">
<stop stop-color="#111111"/>
<stop offset="1" stop-color="#E95040"/>
</linearGradient>
</defs>
</svg>
