<svg width="15" height="15" viewBox="0 0 15 15" fill="none" xmlns="http://www.w3.org/2000/svg">
<path d="M7.5 10.625C7.67708 10.625 7.82552 10.5651 7.94531 10.4453C8.0651 10.3255 8.125 10.1771 8.125 10C8.125 9.82292 8.0651 9.67448 7.94531 9.55469C7.82552 9.4349 7.67708 9.375 7.5 9.375C7.32292 9.375 7.17448 9.4349 7.05469 9.55469C6.9349 9.67448 6.875 9.82292 6.875 10C6.875 10.1771 6.9349 10.3255 7.05469 10.4453C7.17448 10.5651 7.32292 10.625 7.5 10.625ZM6.875 8.125H8.125V4.375H6.875V8.125ZM7.5 13.75C6.63542 13.75 5.82292 13.5859 5.0625 13.2578C4.30208 12.9297 3.64062 12.4844 3.07812 11.9219C2.51562 11.3594 2.07031 10.6979 1.74219 9.9375C1.41406 9.17708 1.25 8.36458 1.25 7.5C1.25 6.63542 1.41406 5.82292 1.74219 5.0625C2.07031 4.30208 2.51562 3.64062 3.07812 3.07812C3.64062 2.51562 4.30208 2.07031 5.0625 1.74219C5.82292 1.41406 6.63542 1.25 7.5 1.25C8.36458 1.25 9.17708 1.41406 9.9375 1.74219C10.6979 2.07031 11.3594 2.51562 11.9219 3.07812C12.4844 3.64062 12.9297 4.30208 13.2578 5.0625C13.5859 5.82292 13.75 6.63542 13.75 7.5C13.75 8.36458 13.5859 9.17708 13.2578 9.9375C12.9297 10.6979 12.4844 11.3594 11.9219 11.9219C11.3594 12.4844 10.6979 12.9297 9.9375 13.2578C9.17708 13.5859 8.36458 13.75 7.5 13.75Z" fill="#999999"/>
</svg>
