<svg width="12" height="12" viewBox="0 0 12 12" fill="none" xmlns="http://www.w3.org/2000/svg">
<path d="M1.25 11.25C0.90625 11.25 0.611979 11.1276 0.367188 10.8828C0.122396 10.638 0 10.3438 0 10V1.25C0 0.90625 0.122396 0.611979 0.367188 0.367188C0.611979 0.122396 0.90625 0 1.25 0H5.625V1.25H1.25V10H10V5.625H11.25V10C11.25 10.3438 11.1276 10.638 10.8828 10.8828C10.638 11.1276 10.3438 11.25 10 11.25H1.25ZM4.1875 7.9375L3.3125 7.0625L9.125 1.25H6.875V0H11.25V4.375H10V2.125L4.1875 7.9375Z" fill="#999999"/>
</svg>
