<svg width="20" height="20" viewBox="0 0 20 20" fill="none" xmlns="http://www.w3.org/2000/svg">
<circle cx="15" cy="7" r="5" fill="#E9EEF6"/>
<path d="M3.85449 18.3333C3.63227 18.3333 3.43088 18.243 3.25033 18.0625C3.06977 17.8819 2.97949 17.6805 2.97949 17.4583V15.2708C2.97949 14.0208 3.36838 12.9166 4.14616 11.9583C4.92394 11 5.92394 10.3888 7.14616 10.125C6.5906 10.5138 6.16005 11.0034 5.85449 11.5937C5.54894 12.184 5.39616 12.8194 5.39616 13.5V17.4583C5.39616 17.6111 5.41699 17.7638 5.45866 17.9166C5.50033 18.0694 5.56977 18.2083 5.66699 18.3333H3.85449ZM6.91699 18.3333C6.68088 18.3333 6.47602 18.2465 6.30241 18.0729C6.1288 17.8993 6.04199 17.6944 6.04199 17.4583V13.5C6.04199 12.5277 6.38574 11.7013 7.07324 11.0208C7.76074 10.3402 8.5906 9.99996 9.56283 9.99996H13.5003C14.4725 9.99996 15.2989 10.3402 15.9795 11.0208C16.66 11.7013 17.0003 12.5277 17.0003 13.5V14.8333C17.0003 15.8055 16.66 16.6319 15.9795 17.3125C15.2989 17.993 14.4725 18.3333 13.5003 18.3333H6.91699ZM10.0003 8.24996C9.08366 8.24996 8.30588 7.93051 7.66699 7.29163C7.0281 6.65274 6.70866 5.87496 6.70866 4.95829C6.70866 4.04163 7.0281 3.26385 7.66699 2.62496C8.30588 1.98607 9.08366 1.66663 10.0003 1.66663C10.917 1.66663 11.6948 1.98607 12.3337 2.62496C12.9725 3.26385 13.292 4.04163 13.292 4.95829C13.292 5.87496 12.9725 6.65274 12.3337 7.29163C11.6948 7.93051 10.917 8.24996 10.0003 8.24996Z" fill="#111111"/>
</svg>
