<svg width="20" height="20" viewBox="0 0 20 20" fill="none" xmlns="http://www.w3.org/2000/svg">
<path d="M15.0003 5.83333H5.00033V2.5H15.0003V5.83333ZM15.0003 10.4167C15.2364 10.4167 15.4344 10.3368 15.5941 10.1771C15.7538 10.0174 15.8337 9.81944 15.8337 9.58333C15.8337 9.34722 15.7538 9.14931 15.5941 8.98958C15.4344 8.82986 15.2364 8.75 15.0003 8.75C14.7642 8.75 14.5663 8.82986 14.4066 8.98958C14.2469 9.14931 14.167 9.34722 14.167 9.58333C14.167 9.81944 14.2469 10.0174 14.4066 10.1771C14.5663 10.3368 14.7642 10.4167 15.0003 10.4167ZM13.3337 15.8333V12.5H6.66699V15.8333H13.3337ZM15.0003 17.5H5.00033V14.1667H1.66699V9.16667C1.66699 8.45833 1.91005 7.86458 2.39616 7.38542C2.88227 6.90625 3.47255 6.66667 4.16699 6.66667H15.8337C16.542 6.66667 17.1357 6.90625 17.6149 7.38542C18.0941 7.86458 18.3337 8.45833 18.3337 9.16667V14.1667H15.0003V17.5Z" fill="white"/>
</svg>
