<svg width="12" height="12" viewBox="0 0 12 12" fill="none" xmlns="http://www.w3.org/2000/svg">
<path d="M2.5 3.75H8.75V2.5H2.5V3.75ZM1.25 11.25C0.90625 11.25 0.611979 11.1276 0.367188 10.8828C0.122396 10.638 0 10.3438 0 10V1.25C0 0.90625 0.122396 0.611979 0.367188 0.367188C0.611979 0.122396 0.90625 0 1.25 0H10C10.3438 0 10.638 0.122396 10.8828 0.367188C11.1276 0.611979 11.25 0.90625 11.25 1.25V5.28125C11.0104 4.8125 10.6667 4.4401 10.2188 4.16406C9.77083 3.88802 9.28125 3.75 8.75 3.75C8.28125 3.75 7.84375 3.85938 7.4375 4.07812C7.03125 4.29688 6.69271 4.60417 6.42188 5H2.5V6.25H5.95312C5.93229 6.45833 5.93229 6.66667 5.95312 6.875C5.97396 7.08333 6.02083 7.29167 6.09375 7.5H2.5V8.75H4.95312C4.75521 8.97917 4.60938 9.23177 4.51562 9.50781C4.42188 9.78385 4.375 10.0729 4.375 10.375V11.25H1.25ZM5.625 11.25V10.375C5.625 10.125 5.6901 9.89323 5.82031 9.67969C5.95052 9.46615 6.13542 9.3125 6.375 9.21875C6.75 9.0625 7.13802 8.94531 7.53906 8.86719C7.9401 8.78906 8.34375 8.75 8.75 8.75C9.15625 8.75 9.5599 8.78906 9.96094 8.86719C10.362 8.94531 10.75 9.0625 11.125 9.21875C11.3646 9.3125 11.5495 9.46615 11.6797 9.67969C11.8099 9.89323 11.875 10.125 11.875 10.375V11.25H5.625ZM8.75 8.125C8.3125 8.125 7.94271 7.97396 7.64062 7.67188C7.33854 7.36979 7.1875 7 7.1875 6.5625C7.1875 6.125 7.33854 5.75521 7.64062 5.45312C7.94271 5.15104 8.3125 5 8.75 5C9.1875 5 9.55729 5.15104 9.85938 5.45312C10.1615 5.75521 10.3125 6.125 10.3125 6.5625C10.3125 7 10.1615 7.36979 9.85938 7.67188C9.55729 7.97396 9.1875 8.125 8.75 8.125Z" fill="#999999"/>
</svg>
