<svg width="13" height="13" viewBox="0 0 13 13" fill="none" xmlns="http://www.w3.org/2000/svg">
<path d="M6.21875 10C6.4375 10 6.6224 9.92448 6.77344 9.77344C6.92448 9.6224 7 9.4375 7 9.21875C7 9 6.92448 8.8151 6.77344 8.66406C6.6224 8.51302 6.4375 8.4375 6.21875 8.4375C6 8.4375 5.8151 8.51302 5.66406 8.66406C5.51302 8.8151 5.4375 9 5.4375 9.21875C5.4375 9.4375 5.51302 9.6224 5.66406 9.77344C5.8151 9.92448 6 10 6.21875 10ZM5.65625 7.59375H6.8125C6.8125 7.25 6.85156 6.97917 6.92969 6.78125C7.00781 6.58333 7.22917 6.3125 7.59375 5.96875C7.86458 5.69792 8.07812 5.4401 8.23438 5.19531C8.39062 4.95052 8.46875 4.65625 8.46875 4.3125C8.46875 3.72917 8.25521 3.28125 7.82812 2.96875C7.40104 2.65625 6.89583 2.5 6.3125 2.5C5.71875 2.5 5.23698 2.65625 4.86719 2.96875C4.4974 3.28125 4.23958 3.65625 4.09375 4.09375L5.125 4.5C5.17708 4.3125 5.29427 4.10938 5.47656 3.89062C5.65885 3.67188 5.9375 3.5625 6.3125 3.5625C6.64583 3.5625 6.89583 3.65365 7.0625 3.83594C7.22917 4.01823 7.3125 4.21875 7.3125 4.4375C7.3125 4.64583 7.25 4.84115 7.125 5.02344C7 5.20573 6.84375 5.375 6.65625 5.53125C6.19792 5.9375 5.91667 6.24479 5.8125 6.45312C5.70833 6.66146 5.65625 7.04167 5.65625 7.59375ZM6.25 12.5C5.38542 12.5 4.57292 12.3359 3.8125 12.0078C3.05208 11.6797 2.39062 11.2344 1.82812 10.6719C1.26562 10.1094 0.820312 9.44792 0.492188 8.6875C0.164062 7.92708 0 7.11458 0 6.25C0 5.38542 0.164062 4.57292 0.492188 3.8125C0.820312 3.05208 1.26562 2.39062 1.82812 1.82812C2.39062 1.26562 3.05208 0.820312 3.8125 0.492188C4.57292 0.164062 5.38542 0 6.25 0C7.11458 0 7.92708 0.164062 8.6875 0.492188C9.44792 0.820312 10.1094 1.26562 10.6719 1.82812C11.2344 2.39062 11.6797 3.05208 12.0078 3.8125C12.3359 4.57292 12.5 5.38542 12.5 6.25C12.5 7.11458 12.3359 7.92708 12.0078 8.6875C11.6797 9.44792 11.2344 10.1094 10.6719 10.6719C10.1094 11.2344 9.44792 11.6797 8.6875 12.0078C7.92708 12.3359 7.11458 12.5 6.25 12.5Z" fill="#999999"/>
</svg>
