<svg width="24" height="24" viewBox="0 0 24 24" fill="none" xmlns="http://www.w3.org/2000/svg">
<g clip-path="url(#clip0_32_907)">
<g filter="url(#filter0_d_32_907)">
<path d="M12 22L11.75 19H11.5C9.13333 19 7.125 18.175 5.475 16.525C3.825 14.875 3 12.8667 3 10.5C3 8.13333 3.825 6.125 5.475 4.475C7.125 2.825 9.13333 2 11.5 2C12.6833 2 13.7875 2.22083 14.8125 2.6625C15.8375 3.10417 16.7375 3.7125 17.5125 4.4875C18.2875 5.2625 18.8958 6.1625 19.3375 7.1875C19.7792 8.2125 20 9.31667 20 10.5C20 11.75 19.7958 12.95 19.3875 14.1C18.9792 15.25 18.4208 16.3167 17.7125 17.3C17.0042 18.2833 16.1625 19.175 15.1875 19.975C14.2125 20.775 13.15 21.45 12 22Z" fill="white"/>
</g>
<path d="M11.875 15.975C12.1583 15.975 12.4 15.875 12.6 15.675C12.8 15.475 12.9 15.2333 12.9 14.95C12.9 14.6667 12.8 14.425 12.6 14.225C12.4 14.025 12.1583 13.925 11.875 13.925C11.5917 13.925 11.35 14.025 11.15 14.225C10.95 14.425 10.85 14.6667 10.85 14.95C10.85 15.2333 10.95 15.475 11.15 15.675C11.35 15.875 11.5917 15.975 11.875 15.975ZM11.15 12.8H12.65C12.65 12.3 12.7 11.95 12.8 11.75C12.9 11.55 13.2167 11.1833 13.75 10.65C14.05 10.35 14.3 10.025 14.5 9.675C14.7 9.325 14.8 8.95 14.8 8.55C14.8 7.7 14.5125 7.0625 13.9375 6.6375C13.3625 6.2125 12.6833 6 11.9 6C11.1667 6 10.55 6.20417 10.05 6.6125C9.55 7.02083 9.2 7.51667 9 8.1L10.4 8.65C10.4833 8.36667 10.6417 8.0875 10.875 7.8125C11.1083 7.5375 11.45 7.4 11.9 7.4C12.35 7.4 12.6875 7.525 12.9125 7.775C13.1375 8.025 13.25 8.3 13.25 8.6C13.25 8.88333 13.1667 9.1375 13 9.3625C12.8333 9.5875 12.6333 9.81667 12.4 10.05C11.8167 10.55 11.4625 10.9458 11.3375 11.2375C11.2125 11.5292 11.15 12.05 11.15 12.8Z" fill="#111111"/>
</g>
<defs>
<filter id="filter0_d_32_907" x="-1" y="-2" width="25" height="28" filterUnits="userSpaceOnUse" color-interpolation-filters="sRGB">
<feFlood flood-opacity="0" result="BackgroundImageFix"/>
<feColorMatrix in="SourceAlpha" type="matrix" values="0 0 0 0 0 0 0 0 0 0 0 0 0 0 0 0 0 0 127 0" result="hardAlpha"/>
<feOffset/>
<feGaussianBlur stdDeviation="2"/>
<feComposite in2="hardAlpha" operator="out"/>
<feColorMatrix type="matrix" values="0 0 0 0 0.588117 0 0 0 0 0.629386 0 0 0 0 0.698167 0 0 0 0.25 0"/>
<feBlend mode="normal" in2="BackgroundImageFix" result="effect1_dropShadow_32_907"/>
<feBlend mode="normal" in="SourceGraphic" in2="effect1_dropShadow_32_907" result="shape"/>
</filter>
<clipPath id="clip0_32_907">
<rect width="24" height="24" fill="white"/>
</clipPath>
</defs>
</svg>
