<svg width="40" height="40" viewBox="0 0 40 40" fill="none" xmlns="http://www.w3.org/2000/svg">
<circle cx="26" cy="13" r="7" fill="#FFDEDB"/>
<path d="M32.6667 35L22.1667 24.5C21.3333 25.1667 20.375 25.6944 19.2917 26.0833C18.2083 26.4722 17.0556 26.6667 15.8333 26.6667C12.8056 26.6667 10.2431 25.6181 8.14583 23.5208C6.04861 21.4236 5 18.8611 5 15.8333C5 12.8056 6.04861 10.2431 8.14583 8.14583C10.2431 6.04861 12.8056 5 15.8333 5C18.8611 5 21.4236 6.04861 23.5208 8.14583C25.6181 10.2431 26.6667 12.8056 26.6667 15.8333C26.6667 17.0556 26.4722 18.2083 26.0833 19.2917C25.6944 20.375 25.1667 21.3333 24.5 22.1667L35 32.6667L32.6667 35ZM15.8333 23.3333C17.9167 23.3333 19.6875 22.6042 21.1458 21.1458C22.6042 19.6875 23.3333 17.9167 23.3333 15.8333C23.3333 13.75 22.6042 11.9792 21.1458 10.5208C19.6875 9.0625 17.9167 8.33333 15.8333 8.33333C13.75 8.33333 11.9792 9.0625 10.5208 10.5208C9.0625 11.9792 8.33333 13.75 8.33333 15.8333C8.33333 17.9167 9.0625 19.6875 10.5208 21.1458C11.9792 22.6042 13.75 23.3333 15.8333 23.3333Z" fill="url(#paint0_linear_32_2583)"/>
<path d="M29 15.5C30.0241 15.752 30.8372 16.1539 31.3129 16.6108C32.1007 17.3675 32.5 19 32.5 19C32.5 19 32.8993 17.3683 33.6871 16.6108C34.1628 16.1539 34.9759 15.752 36 15.5C34.9759 15.248 34.1628 14.8461 33.6871 14.3892C32.8993 13.6325 32.5 12 32.5 12C32.5 12 32.1007 13.6317 31.3129 14.3892C30.8372 14.8461 30.0241 15.248 29 15.5Z" fill="#E95040"/>
<path d="M27 9.5C27.7315 9.68 28.3123 9.96705 28.6521 10.2935C29.2148 10.834 29.5 12 29.5 12C29.5 12 29.7852 10.8345 30.3479 10.2935C30.6877 9.96705 31.2685 9.68 32 9.5C31.2685 9.32 30.6877 9.03295 30.3479 8.70655C29.7852 8.16604 29.5 7 29.5 7C29.5 7 29.2148 8.16551 28.6521 8.70655C28.3123 9.03295 27.7315 9.32 27 9.5Z" fill="#E95040"/>
<defs>
<linearGradient id="paint0_linear_32_2583" x1="20" y1="5" x2="20" y2="35" gradientUnits="userSpaceOnUse">
<stop stop-color="#111111"/>
<stop offset="1" stop-color="#E95040"/>
</linearGradient>
</defs>
</svg>
