<svg width="20" height="20" viewBox="0 0 20 20" fill="none" xmlns="http://www.w3.org/2000/svg">
<circle cx="15" cy="7" r="5" fill="#E9EEF6"/>
<path d="M6.89616 6.43734L4.39616 3.93734L5.58366 2.74984L8.08366 5.24984L6.89616 6.43734ZM10.0003 4.45817V0.916504H11.667V4.45817H10.0003ZM16.0628 15.604L13.5628 13.104L14.7503 11.9165L17.2503 14.4165L16.0628 15.604ZM14.7503 6.43734L13.5628 5.24984L16.0628 2.74984L17.2503 3.93734L14.7503 6.43734ZM15.542 9.99984V8.33317H19.0837V9.99984H15.542ZM4.27116 18.0832L1.91699 15.729C1.75033 15.5623 1.66699 15.3679 1.66699 15.1457C1.66699 14.9234 1.75033 14.729 1.91699 14.5623L9.47949 6.979C9.9656 6.49289 10.5559 6.24984 11.2503 6.24984C11.9448 6.24984 12.535 6.49289 13.0212 6.979C13.5073 7.46511 13.7503 8.05539 13.7503 8.74984C13.7503 9.44428 13.5073 10.0346 13.0212 10.5207L5.43783 18.0832C5.27116 18.2498 5.07671 18.3332 4.85449 18.3332C4.63227 18.3332 4.43783 18.2498 4.27116 18.0832ZM10.0837 11.104L11.8337 9.33317C12.0003 9.1665 12.0837 8.97206 12.0837 8.74984C12.0837 8.52761 12.0003 8.33317 11.8337 8.1665C11.667 7.99984 11.4725 7.9165 11.2503 7.9165C11.0281 7.9165 10.8337 7.99984 10.667 8.1665L8.89616 9.93734L10.0837 11.104Z" fill="#666666"/>
</svg>
