<svg width="70" height="70" viewBox="0 0 70 70" fill="none" xmlns="http://www.w3.org/2000/svg">
<g filter="url(#filter0_f_32_624)">
<circle cx="35" cy="35" r="25" fill="url(#paint0_radial_32_624)"/>
</g>
<g filter="url(#filter1_f_32_624)">
<ellipse cx="43.75" cy="42.5" rx="6.25" ry="7.5" fill="#DC5041"/>
</g>
<g filter="url(#filter2_d_32_624)">
<path d="M23.333 33.8684C25.272 34.3767 26.8107 35.1889 27.7117 36.1121C29.2034 37.6407 29.9593 40.9364 29.9593 40.9364C29.9593 40.9364 30.7152 37.6407 32.2068 36.1121C33.1078 35.1889 34.6465 34.3773 36.5856 33.8684C34.6465 33.36 33.1078 32.5479 32.2068 31.6246C30.7152 30.0961 29.9593 26.8004 29.9593 26.8004C29.9593 26.8004 29.2034 30.0961 27.7117 31.6246C26.8107 32.5479 25.272 33.3594 23.333 33.8684Z" fill="white"/>
<path d="M34.6973 41.6593C35.6797 41.9109 36.4596 42.3123 36.916 42.7686C37.6717 43.5243 38.0547 45.1546 38.0547 45.1546C38.0547 45.1546 38.4377 43.5251 39.1934 42.7686C39.6497 42.3123 40.4296 41.9109 41.4121 41.6593C40.4296 41.4076 39.6497 41.0063 39.1934 40.5499C38.4377 39.7942 38.0547 38.1639 38.0547 38.1639C38.0547 38.1639 37.6717 39.7935 36.916 40.5499C36.4596 41.0063 35.6797 41.4076 34.6973 41.6593Z" fill="white"/>
<path d="M39.7471 27.116C40.3936 27.2751 40.9069 27.5288 41.2073 27.8173C41.7046 28.295 41.9567 29.3256 41.9567 29.3256C41.9567 29.3256 42.2087 28.2954 42.7061 27.8173C43.0064 27.5288 43.5197 27.2751 44.1663 27.116C43.5197 26.9569 43.0064 26.7032 42.7061 26.4147C42.2087 25.937 41.9567 24.9064 41.9567 24.9064C41.9567 24.9064 41.7046 25.9365 41.2073 26.4147C40.9069 26.7032 40.3936 26.9569 39.7471 27.116Z" fill="white"/>
</g>
<defs>
<filter id="filter0_f_32_624" x="0" y="0" width="70" height="70" filterUnits="userSpaceOnUse" color-interpolation-filters="sRGB">
<feFlood flood-opacity="0" result="BackgroundImageFix"/>
<feBlend mode="normal" in="SourceGraphic" in2="BackgroundImageFix" result="shape"/>
<feGaussianBlur stdDeviation="5" result="effect1_foregroundBlur_32_624"/>
</filter>
<filter id="filter1_f_32_624" x="27.5" y="25" width="32.5" height="35" filterUnits="userSpaceOnUse" color-interpolation-filters="sRGB">
<feFlood flood-opacity="0" result="BackgroundImageFix"/>
<feBlend mode="normal" in="SourceGraphic" in2="BackgroundImageFix" result="shape"/>
<feGaussianBlur stdDeviation="5" result="effect1_foregroundBlur_32_624"/>
</filter>
<filter id="filter2_d_32_624" x="19.333" y="20.9064" width="28.8335" height="28.2482" filterUnits="userSpaceOnUse" color-interpolation-filters="sRGB">
<feFlood flood-opacity="0" result="BackgroundImageFix"/>
<feColorMatrix in="SourceAlpha" type="matrix" values="0 0 0 0 0 0 0 0 0 0 0 0 0 0 0 0 0 0 127 0" result="hardAlpha"/>
<feOffset/>
<feGaussianBlur stdDeviation="2"/>
<feComposite in2="hardAlpha" operator="out"/>
<feColorMatrix type="matrix" values="0 0 0 0 0.913725 0 0 0 0 0.313726 0 0 0 0 0.25098 0 0 0 0.25 0"/>
<feBlend mode="normal" in2="BackgroundImageFix" result="effect1_dropShadow_32_624"/>
<feBlend mode="normal" in="SourceGraphic" in2="effect1_dropShadow_32_624" result="shape"/>
</filter>
<radialGradient id="paint0_radial_32_624" cx="0" cy="0" r="1" gradientUnits="userSpaceOnUse" gradientTransform="translate(41.6667 41.6667) rotate(-121.264) scale(27.2972)">
<stop stop-color="#E95040"/>
<stop offset="0.826964" stop-color="#FFD2D2"/>
<stop offset="1" stop-color="#FFEDED"/>
</radialGradient>
</defs>
</svg>
