<svg width="20" height="20" viewBox="0 0 20 20" fill="none" xmlns="http://www.w3.org/2000/svg">
<path d="M9.99967 16.6668C9.54134 16.6668 9.14898 16.5036 8.82259 16.1772C8.4962 15.8509 8.33301 15.4585 8.33301 15.0002C8.33301 14.5418 8.4962 14.1495 8.82259 13.8231C9.14898 13.4967 9.54134 13.3335 9.99967 13.3335C10.458 13.3335 10.8504 13.4967 11.1768 13.8231C11.5031 14.1495 11.6663 14.5418 11.6663 15.0002C11.6663 15.4585 11.5031 15.8509 11.1768 16.1772C10.8504 16.5036 10.458 16.6668 9.99967 16.6668ZM9.99967 11.6668C9.54134 11.6668 9.14898 11.5036 8.82259 11.1772C8.4962 10.8509 8.33301 10.4585 8.33301 10.0002C8.33301 9.54183 8.4962 9.14947 8.82259 8.82308C9.14898 8.49669 9.54134 8.3335 9.99967 8.3335C10.458 8.3335 10.8504 8.49669 11.1768 8.82308C11.5031 9.14947 11.6663 9.54183 11.6663 10.0002C11.6663 10.4585 11.5031 10.8509 11.1768 11.1772C10.8504 11.5036 10.458 11.6668 9.99967 11.6668ZM9.99967 6.66683C9.54134 6.66683 9.14898 6.50363 8.82259 6.17725C8.4962 5.85086 8.33301 5.4585 8.33301 5.00016C8.33301 4.54183 8.4962 4.14947 8.82259 3.82308C9.14898 3.49669 9.54134 3.3335 9.99967 3.3335C10.458 3.3335 10.8504 3.49669 11.1768 3.82308C11.5031 4.14947 11.6663 4.54183 11.6663 5.00016C11.6663 5.4585 11.5031 5.85086 11.1768 6.17725C10.8504 6.50363 10.458 6.66683 9.99967 6.66683Z" fill="#666666"/>
</svg>
