<svg width="20" height="20" viewBox="0 0 20 20" fill="none" xmlns="http://www.w3.org/2000/svg">
<path d="M15.0003 17.5002H5.83366V6.66683L11.667 0.833496L12.7087 1.87516C12.8059 1.97238 12.8857 2.10433 12.9482 2.271C13.0107 2.43766 13.042 2.59738 13.042 2.75016V3.04183L12.1253 6.66683H17.5003C17.9448 6.66683 18.3337 6.8335 18.667 7.16683C19.0003 7.50016 19.167 7.88905 19.167 8.3335V10.0002C19.167 10.0974 19.1531 10.2016 19.1253 10.3127C19.0975 10.4238 19.0698 10.5279 19.042 10.6252L16.542 16.5002C16.417 16.7779 16.2087 17.0141 15.917 17.2085C15.6253 17.4029 15.3198 17.5002 15.0003 17.5002ZM7.50033 15.8335H15.0003L17.5003 10.0002V8.3335H10.0003L11.1253 3.75016L7.50033 7.37516V15.8335ZM5.83366 6.66683V8.3335H3.33366V15.8335H5.83366V17.5002H1.66699V6.66683H5.83366Z" fill="#666666"/>
</svg>
