<svg width="20" height="20" viewBox="0 0 20 20" fill="none" xmlns="http://www.w3.org/2000/svg">
<path d="M4.99967 2.5H14.1663V13.3333L8.33301 19.1667L7.29134 18.125C7.19412 18.0278 7.11426 17.8958 7.05176 17.7292C6.98926 17.5625 6.95801 17.4028 6.95801 17.25V16.9583L7.87467 13.3333H2.49967C2.05523 13.3333 1.66634 13.1667 1.33301 12.8333C0.999674 12.5 0.833008 12.1111 0.833008 11.6667V10C0.833008 9.90278 0.846897 9.79861 0.874674 9.6875C0.902452 9.57639 0.93023 9.47222 0.958008 9.375L3.45801 3.5C3.58301 3.22222 3.79134 2.98611 4.08301 2.79167C4.37467 2.59722 4.68023 2.5 4.99967 2.5ZM12.4997 4.16667H4.99967L2.49967 10V11.6667H9.99967L8.87467 16.25L12.4997 12.625V4.16667ZM14.1663 13.3333V11.6667H16.6663V4.16667H14.1663V2.5H18.333V13.3333H14.1663Z" fill="#666666"/>
</svg>
