<svg width="20" height="20" viewBox="0 0 20 20" fill="none" xmlns="http://www.w3.org/2000/svg">
<path d="M0.833008 17.5V15.8333H19.1663V17.5H0.833008ZM3.33301 15C2.87467 15 2.48231 14.8368 2.15592 14.5104C1.82954 14.184 1.66634 13.7917 1.66634 13.3333V4.16667C1.66634 3.70833 1.82954 3.31597 2.15592 2.98958C2.48231 2.66319 2.87467 2.5 3.33301 2.5H16.6663C17.1247 2.5 17.517 2.66319 17.8434 2.98958C18.1698 3.31597 18.333 3.70833 18.333 4.16667V13.3333C18.333 13.7917 18.1698 14.184 17.8434 14.5104C17.517 14.8368 17.1247 15 16.6663 15H3.33301Z" fill="#666666"/>
<path d="M9.83984 11.2422L8.61523 7H9.7168L10.3672 9.8125H10.4023L11.1406 7H12.0488L12.793 9.81836H12.8223L13.4785 7H14.5801L13.3496 11.2422H12.3887L11.6152 8.62891H11.5801L10.8066 11.2422H9.83984Z" fill="white"/>
<path d="M5 11.2422V7H6.73438C7.68945 7 8.27539 7.53906 8.27539 8.40625C8.27539 8.98926 8.00879 9.4082 7.54297 9.61914L8.42773 11.2422H7.33203L6.55273 9.7832H5.99609V11.2422H5ZM5.99609 8.98633H6.52344C6.99219 8.98633 7.24414 8.80469 7.24414 8.40625C7.24414 8.00781 6.99219 7.80859 6.52344 7.80859H5.99609V8.98633Z" fill="white"/>
</svg>
