<svg width="15" height="15" viewBox="0 0 15 15" fill="none" xmlns="http://www.w3.org/2000/svg">
<path d="M4.125 15C2.98611 15 2.01389 14.5972 1.20833 13.7917C0.402778 12.9861 0 12.0139 0 10.875C0 10.3194 0.104167 9.79167 0.3125 9.29167C0.520833 8.79167 0.819444 8.34722 1.20833 7.95833L4 5.1875L5.16667 6.35417L2.375 9.14583C2.13889 9.38194 1.96181 9.64931 1.84375 9.94792C1.72569 10.2465 1.66667 10.5556 1.66667 10.875C1.66667 11.5556 1.90625 12.1354 2.38542 12.6146C2.86458 13.0938 3.44444 13.3333 4.125 13.3333C4.44444 13.3333 4.75694 13.2743 5.0625 13.1562C5.36806 13.0382 5.63889 12.8611 5.875 12.625L8.64583 9.83333L9.83333 11.0208L7.04167 13.7917C6.65278 14.1806 6.20833 14.4792 5.70833 14.6875C5.20833 14.8958 4.68056 15 4.125 15ZM5.77083 10.4167L4.58333 9.22917L9.22917 4.58333L10.4167 5.77083L5.77083 10.4167ZM11 9.83333L9.83333 8.64583L12.625 5.875C12.8611 5.63889 13.0347 5.375 13.1458 5.08333C13.2569 4.79167 13.3125 4.48611 13.3125 4.16667C13.3125 3.47222 13.0764 2.88194 12.6042 2.39583C12.1319 1.90972 11.5486 1.66667 10.8542 1.66667C10.5347 1.66667 10.2257 1.72569 9.92708 1.84375C9.62847 1.96181 9.36111 2.13889 9.125 2.375L6.35417 5.16667L5.16667 4L7.95833 1.20833C8.34722 0.819444 8.79167 0.520833 9.29167 0.3125C9.79167 0.104167 10.3194 0 10.875 0C12.0139 0 12.9826 0.402778 13.7812 1.20833C14.5799 2.01389 14.9792 2.99306 14.9792 4.14583C14.9792 4.6875 14.8785 5.20833 14.6771 5.70833C14.4757 6.20833 14.1806 6.65278 13.7917 7.04167L11 9.83333Z" fill="#666666"/>
</svg>
